<?xml version="1.0" encoding="utf-8"?>
<!-- Generator: Adobe Illustrator 16.0.0, SVG Export Plug-In . SVG Version: 6.00 Build 0)  -->
<!DOCTYPE svg PUBLIC "-//W3C//DTD SVG 1.1//EN" "http://www.w3.org/Graphics/SVG/1.1/DTD/svg11.dtd">
<svg version="1.1" id="Capa_1" xmlns="http://www.w3.org/2000/svg" xmlns:xlink="http://www.w3.org/1999/xlink" x="0px" y="0px"
	 width="449px" height="300px" viewBox="448.473 34 449 300" enable-background="new 448.473 34 449 300" xml:space="preserve">
<circle fill="#CDE6F5" cx="670.862" cy="186" r="150"/>
<path fill="#6699FF" d="M539.121,295h-45c-12.131,0-22-9.869-22-22V99.5c0-12.131,9.869-22,22-22h45c12.131,0,22,9.869,22,22V273
	C561.121,285.131,551.252,295,539.121,295z"/>
<path fill="#FFFFFF" d="M494.121,81.5c-9.925,0-18,8.075-18,18V273c0,9.925,8.075,18,18,18h45c9.925,0,18-8.075,18-18V99.5
	c0-9.925-8.075-18-18-18H494.121z"/>
<path fill="#6699FF" d="M693.473,294.75h-45c-12.131,0-22-9.869-22-22V99.25c0-12.131,9.869-22,22-22h45c12.131,0,22,9.869,22,22
	v173.5C715.473,284.881,705.604,294.75,693.473,294.75z"/>
<path fill="#FFFFFF" d="M648.473,81.25c-9.925,0-18,8.075-18,18v173.5c0,9.925,8.075,18,18,18h45c9.925,0,18-8.075,18-18V99.25
	c0-9.925-8.075-18-18-18H648.473z"/>
<path fill="#6699FF" d="M847.973,295h-45c-12.131,0-22-9.869-22-22V99.5c0-12.131,9.869-22,22-22h45c12.131,0,22,9.869,22,22V273
	C869.973,285.131,860.104,295,847.973,295z"/>
<path fill="#FFFFFF" d="M802.973,81.5c-9.925,0-18,8.075-18,18V273c0,9.925,8.075,18,18,18h45c9.925,0,18-8.075,18-18V99.5
	c0-9.925-8.075-18-18-18H802.973z"/>
<g>
	<path fill="#6699FF" d="M536.14,117.834h-39.334c-1.104,0-2-0.896-2-2s0.896-2,2-2h39.334c1.104,0,2,0.896,2,2
		S537.244,117.834,536.14,117.834z"/>
</g>
<g>
	<path fill="#6699FF" d="M536.288,137.834h-39.334c-1.104,0-2-0.896-2-2s0.896-2,2-2h39.334c1.104,0,2,0.896,2,2
		S537.393,137.834,536.288,137.834z"/>
</g>
<g>
	<path fill="#6699FF" d="M536.066,240.833h-39.334c-1.104,0-2-0.896-2-2s0.896-2,2-2h39.334c1.104,0,2,0.896,2,2
		S537.17,240.833,536.066,240.833z"/>
</g>
<g>
	<path fill="#6699FF" d="M536.214,260.833H496.88c-1.104,0-2-0.896-2-2s0.896-2,2-2h39.334c1.104,0,2,0.896,2,2
		S537.319,260.833,536.214,260.833z"/>
</g>
<circle fill="#6699FF" cx="516.621" cy="184.167" r="14"/>
<g>
	<path fill="#6699FF" d="M690.603,117.834h-39.334c-1.104,0-2-0.896-2-2s0.896-2,2-2h39.334c1.104,0,2,0.896,2,2
		S691.707,117.834,690.603,117.834z"/>
</g>
<g>
	<path fill="#6699FF" d="M690.751,137.834h-39.334c-1.104,0-2-0.896-2-2s0.896-2,2-2h39.334c1.104,0,2,0.896,2,2
		S691.856,137.834,690.751,137.834z"/>
</g>
<g>
	<path fill="#6699FF" d="M690.529,240.833h-39.334c-1.104,0-2-0.896-2-2s0.896-2,2-2h39.334c1.104,0,2,0.896,2,2
		S691.633,240.833,690.529,240.833z"/>
</g>
<g>
	<path fill="#6699FF" d="M690.677,260.833h-39.334c-1.104,0-2-0.896-2-2s0.896-2,2-2h39.334c1.104,0,2,0.896,2,2
		S691.781,260.833,690.677,260.833z"/>
</g>
<circle fill="#6699FF" cx="671.084" cy="184.167" r="14"/>
<g>
	<path fill="#6699FF" d="M845.103,117.834h-39.334c-1.104,0-2-0.896-2-2s0.896-2,2-2h39.334c1.104,0,2,0.896,2,2
		S846.207,117.834,845.103,117.834z"/>
</g>
<g>
	<path fill="#6699FF" d="M845.251,137.834h-39.334c-1.104,0-2-0.896-2-2s0.896-2,2-2h39.334c1.104,0,2,0.896,2,2
		S846.356,137.834,845.251,137.834z"/>
</g>
<g>
	<path fill="#6699FF" d="M845.029,240.833h-39.334c-1.104,0-2-0.896-2-2s0.896-2,2-2h39.334c1.104,0,2,0.896,2,2
		S846.133,240.833,845.029,240.833z"/>
</g>
<g>
	<path fill="#6699FF" d="M845.177,260.833h-39.334c-1.104,0-2-0.896-2-2s0.896-2,2-2h39.334c1.104,0,2,0.896,2,2
		S846.281,260.833,845.177,260.833z"/>
</g>
<circle fill="#6699FF" cx="825.584" cy="184.167" r="14"/>
<g>
	<path fill="#003399" d="M877.806,309.334H460.473c-0.828,0-1.5-0.672-1.5-1.5s0.672-1.5,1.5-1.5h417.333c0.828,0,1.5,0.672,1.5,1.5
		S878.634,309.334,877.806,309.334z"/>
</g>
</svg>
