<?xml version="1.0" encoding="utf-8"?>
<!-- Generator: Adobe Illustrator 16.0.0, SVG Export Plug-In . SVG Version: 6.00 Build 0)  -->
<!DOCTYPE svg PUBLIC "-//W3C//DTD SVG 1.1//EN" "http://www.w3.org/Graphics/SVG/1.1/DTD/svg11.dtd">
<svg version="1.1" id="Capa_1" xmlns="http://www.w3.org/2000/svg" xmlns:xlink="http://www.w3.org/1999/xlink" x="0px" y="0px"
	 width="299.946px" height="300px" viewBox="0 0 299.946 300" enable-background="new 0 0 299.946 300" xml:space="preserve">
<circle fill="#CDE6F5" cx="150" cy="150" r="150"/>
<polygon fill="#3773B1" stroke="#003399" stroke-width="2" stroke-miterlimit="10" points="274,272 27.333,272 26,186 61,28 240,28 
	274,185 "/>
<rect x="99.5" y="44" fill="#3399CC" width="106" height="106"/>
<rect x="88" y="70.5" fill="#CCFFFF" stroke="#6699CC" stroke-width="3" stroke-miterlimit="10" width="129" height="129"/>
<polygon fill="#E9E9E9" stroke="#336699" stroke-width="4" stroke-miterlimit="10" points="234,267.5 71,267.5 71,104.5 154.25,44 
	234,104.5 "/>
<path fill="#336699" d="M73,124.476v-10.19l80.766,48.558L232,114.342v22.175c1.33-0.026,2.664,0.035,4,0.204v-29.564l-82.266,51
	L69,107.213v15.515C70.358,123.292,71.694,123.867,73,124.476z"/>
<path fill="#6699FF" stroke="#003399" stroke-width="2" stroke-miterlimit="10" d="M177.243,184.891
	c0.054,0.685,0.09,1.374,0.09,2.071c0,14.718-12.282,27-27,27c-14.718,0-27-12.282-27-27c0-0.623,0.03-1.24,0.073-1.854L26,185.5
	l1.333,86H274v-87L177.243,184.891z"/>
<path fill="#336699" d="M167.678,86.736c-2.628,0-4.751,2.124-4.751,4.745c0,2.628,2.123,4.749,4.751,4.749s4.748-2.121,4.748-4.749
	C172.426,88.859,170.306,86.736,167.678,86.736z M167.678,92.494c-0.608,0-1.015-0.507-1.015-1.013c0-0.501,0.507-1.003,1.015-1.003
	c0.604,0,1.009,0.502,1.009,1.003C168.687,91.986,168.183,92.494,167.678,92.494z"/>
<path fill="#336699" d="M163.635,77.136c-10.207,0-18.494,8.29-18.494,18.49c0,1.619,0.206,3.129,0.611,4.749l-19.707,19.606v13.235
	h14.349v-8.081h8.084v-8.084h6.975l3.533-3.544c1.52,0.406,3.133,0.615,4.649,0.615c10.2,0,18.49-8.29,18.49-18.496
	C182.125,85.425,173.835,77.136,163.635,77.136z M163.635,110.38c-1.618,0-3.13-0.307-4.649-0.71l-1.11-0.403l-4.041,4.043h-9.197
	v8.083h-8.082v8.083h-6.771v-7.88l20.209-20.21l-0.403-1.111c-0.508-1.52-0.711-3.031-0.711-4.649
	c0-8.185,6.671-14.751,14.755-14.751c8.185,0,14.752,6.671,14.752,14.751C178.387,103.71,171.819,110.38,163.635,110.38z"/>
</svg>
