<?xml version="1.0" encoding="utf-8"?>
<!-- Generator: Adobe Illustrator 16.0.0, SVG Export Plug-In . SVG Version: 6.00 Build 0)  -->
<!DOCTYPE svg PUBLIC "-//W3C//DTD SVG 1.1//EN" "http://www.w3.org/Graphics/SVG/1.1/DTD/svg11.dtd">
<svg version="1.1" id="Capa_1" xmlns="http://www.w3.org/2000/svg" xmlns:xlink="http://www.w3.org/1999/xlink" x="0px" y="0px"
	 width="299.945px" height="300px" viewBox="0 0 299.945 300" enable-background="new 0 0 299.945 300" xml:space="preserve">
<circle fill="#CDE6F5" cx="150" cy="150" r="150"/>
<polygon fill="#3773B1" stroke="#003399" stroke-width="2" stroke-miterlimit="10" points="274,272 27.333,272 26,186 61,28 240,28 
	274,185 "/>
<rect x="99.5" y="44" fill="#3399CC" width="106" height="106"/>
<rect x="88" y="70.5" fill="#CCFFFF" stroke="#6699CC" stroke-width="3" stroke-miterlimit="10" width="129" height="129"/>
<polygon fill="#E9E9E9" stroke="#336699" stroke-width="4" stroke-miterlimit="10" points="71,104.5 148.639,53.167 234,104.5 
	234,267.5 71,267.5 "/>
<path fill="#336699" d="M236,271.5H69V102.964l84.733,50.942l82.267-51V271.5z M73,267.5h159V110.093l-78.234,48.501L73,110.036
	V267.5z"/>
<path fill="#6699FF" stroke="#003399" stroke-width="2" stroke-miterlimit="10" d="M177.243,184.891
	c0.054,0.686,0.09,1.375,0.09,2.071c0,14.718-12.282,27-27,27c-14.719,0-27-12.282-27-27c0-0.623,0.029-1.239,0.072-1.854L26,185.5
	l1.333,86H274v-87L177.243,184.891z"/>
<path fill="#FFFFFF" stroke="#3773B1" stroke-miterlimit="10" d="M121.483,95.828c-6.005,3.552-11.732,7.511-17.343,11.644v16.618
	c0,0,49.368,30.01,49.638,29.859s42.195-26.449,42.195-26.449V95.828H121.483z"/>
<path fill="#FFFFFF" stroke="#3773B1" stroke-miterlimit="10" d="M104.139,106.831l16.872,0.333l0.595-11.213
	C121.606,95.951,108.615,103.735,104.139,106.831z"/>
<rect x="167.473" y="100.667" fill="#99CCCC" width="42.954" height="15.5"/>
<g>
	<path fill="#003399" d="M180.845,112.712l2.717-8.59h0.996l2.885,8.59h-1.066l-0.819-2.602h-2.963l-0.766,2.602H180.845z
		 M182.865,109.185h2.4l-0.732-2.379c-0.227-0.73-0.393-1.324-0.498-1.781c-0.091,0.551-0.22,1.098-0.386,1.641L182.865,109.185z"/>
	<path fill="#003399" d="M188.175,112.712v-8.59h2.654c0.625,0,1.086,0.055,1.383,0.164c0.406,0.148,0.73,0.424,0.973,0.826
		s0.363,0.896,0.363,1.482c0,0.773-0.197,1.404-0.592,1.893s-1.076,0.732-2.045,0.732h-1.805v3.492H188.175z M189.107,108.206h1.822
		c0.574,0,0.994-0.13,1.26-0.39s0.398-0.651,0.398-1.175c0-0.34-0.065-0.631-0.196-0.873s-0.289-0.408-0.475-0.498
		s-0.521-0.135-1.005-0.135h-1.805V108.206z"/>
	<path fill="#003399" d="M194.708,112.712v-8.59h0.932v4.26l3.499-4.26h1.265l-2.957,3.484l3.086,5.105h-1.23l-2.502-4.344
		l-1.16,1.367v2.977H194.708z"/>
</g>
</svg>
