<?xml version="1.0" encoding="utf-8"?>
<!-- Generator: Adobe Illustrator 16.0.0, SVG Export Plug-In . SVG Version: 6.00 Build 0)  -->
<!DOCTYPE svg PUBLIC "-//W3C//DTD SVG 1.1//EN" "http://www.w3.org/Graphics/SVG/1.1/DTD/svg11.dtd">
<svg version="1.1" id="Capa_1" xmlns="http://www.w3.org/2000/svg" xmlns:xlink="http://www.w3.org/1999/xlink" x="0px" y="0px"
	 width="299.946px" height="300px" viewBox="0 0 299.946 300" enable-background="new 0 0 299.946 300" xml:space="preserve">
<circle fill="#CDE6F5" cx="150" cy="150" r="150"/>
<polygon fill="#3773B1" stroke="#003399" stroke-width="2" stroke-miterlimit="10" points="274,272 27.333,272 26,186 61,28 240,28 
	274,185 "/>
<rect x="99.5" y="44" fill="#3399CC" width="106" height="106"/>
<rect x="88" y="70.5" fill="#CCFFFF" stroke="#6699CC" stroke-width="3" stroke-miterlimit="10" width="129" height="129"/>
<rect x="71" y="104.5" fill="#E9E9E9" stroke="#336699" stroke-width="4" stroke-miterlimit="10" width="163" height="163"/>
<path fill="#336699" d="M236,271.5H69V102.964l84.734,50.942l82.266-51V271.5z M73,267.5h159V110.093l-78.234,48.501L73,110.036
	V267.5z"/>
<path fill="#6699FF" stroke="#003399" stroke-width="2" stroke-miterlimit="10" d="M177.243,184.891
	c0.054,0.685,0.09,1.374,0.09,2.071c0,14.718-12.282,27-27,27c-14.718,0-27-12.282-27-27c0-0.623,0.03-1.24,0.073-1.854L26,185.5
	l1.333,86H274v-87L177.243,184.891z"/>
</svg>
