<?xml version="1.0" standalone="no"?>
<!DOCTYPE svg PUBLIC "-//W3C//DTD SVG 1.1//EN" "http://www.w3.org/Graphics/SVG/1.1/DTD/svg11.dtd" >
<svg xmlns="http://www.w3.org/2000/svg">
<metadata>Generated by IcoMoon</metadata>
<defs>
<font id="icomoon" horiz-adv-x="1024">
<font-face units-per-em="1024" ascent="960" descent="-64" />
<missing-glyph horiz-adv-x="1024" />
<glyph unicode="&#x20;" horiz-adv-x="512" d="" />
<glyph unicode="&#xe900;" glyph-name="chect" d="M512 960c-282.88 0-512-229.12-512-512s229.12-512 512-512 512 229.12 512 512-229.12 512-512 512zM409.6 209.152l-191.232 190.976 47.872 47.872 143.36-143.36 361.728 361.728 47.872-47.616-409.6-409.6z" />
<glyph unicode="&#xe901;" glyph-name="baseline-call-24px" d="M853.76 303.787c-52.48 0-103.253 8.533-150.613 23.893-14.933 5.12-31.573 1.28-43.093-10.24l-66.987-84.053c-120.747 57.6-233.813 166.4-293.973 291.413l83.2 70.827c11.52 11.947 14.933 28.587 10.24 43.52-15.787 47.36-23.893 98.133-23.893 150.613 0 23.040-19.2 42.24-42.24 42.24h-147.627c-23.040 0-50.773-10.24-50.773-42.24 0-396.373 329.813-725.76 725.76-725.76 30.293 0 42.24 26.88 42.24 50.347v147.2c0 23.040-19.2 42.24-42.24 42.24z" />
<glyph unicode="&#xe902;" glyph-name="outline-call-24px" d="M279.040 746.667c2.56-37.973 8.96-75.093 19.2-110.507l-51.2-51.2c-17.493 51.2-28.587 105.387-32.427 161.707h64.427zM699.733 233.813c36.267-10.24 73.387-16.64 110.933-19.2v-63.573c-56.32 3.84-110.507 14.933-162.133 32l51.2 50.773zM320 832h-149.333c-23.467 0-42.667-19.2-42.667-42.667 0-400.64 324.693-725.333 725.333-725.333 23.467 0 42.667 19.2 42.667 42.667v148.907c0 23.467-19.2 42.667-42.667 42.667-52.907 0-104.533 8.533-152.32 24.32-4.267 1.707-8.96 2.133-13.227 2.133-11.093 0-21.76-4.267-30.293-12.373l-93.867-93.867c-120.747 61.867-219.733 160.427-281.173 281.173l93.867 93.867c11.947 11.947 15.36 28.587 10.667 43.52-15.787 47.787-24.32 98.987-24.32 152.32 0 23.467-19.2 42.667-42.667 42.667v0z" />
<glyph unicode="&#xe903;" glyph-name="round-call-24px" d="M820.48 308.907l-108.373 12.373c-26.027 2.987-51.627-5.973-69.973-24.32l-78.507-78.507c-120.747 61.44-219.733 160-281.173 281.173l78.933 78.933c18.347 18.347 27.307 43.947 24.32 69.973l-12.373 107.52c-5.12 43.093-41.387 75.52-84.907 75.52h-73.813c-48.213 0-88.32-40.107-85.333-88.32 22.613-364.373 314.027-655.36 677.973-677.973 48.213-2.987 88.32 37.12 88.32 85.333v73.813c0.427 43.093-32 79.36-75.093 84.48z" />
<glyph unicode="&#xe904;" glyph-name="sharp-call-24px" d="M896 300.373l-224.853 26.027-107.52-107.52c-120.747 61.44-219.733 160-281.173 281.173l107.947 107.947-26.027 224h-235.093c-24.747-434.347 332.373-791.467 766.72-766.72v235.093z" />
<glyph unicode="&#xe905;" glyph-name="baseline-calendar_today-24px" d="M853.333 832h-42.667v85.333h-85.333v-85.333h-426.667v85.333h-85.333v-85.333h-42.667c-46.933 0-85.333-38.4-85.333-85.333v-682.667c0-46.933 38.4-85.333 85.333-85.333h682.667c46.933 0 85.333 38.4 85.333 85.333v682.667c0 46.933-38.4 85.333-85.333 85.333zM853.333 64h-682.667v554.667h682.667v-554.667z" />
<glyph unicode="&#xe906;" glyph-name="baseline-comment-24px" d="M938.24 789.333c0 46.933-37.973 85.333-84.907 85.333h-682.667c-46.933 0-85.333-38.4-85.333-85.333v-512c0-46.933 38.4-85.333 85.333-85.333h597.333l170.667-170.667-0.427 768zM768 362.667h-512v85.333h512v-85.333zM768 490.667h-512v85.333h512v-85.333zM768 618.667h-512v85.333h512v-85.333z" />
<glyph unicode="&#xe907;" glyph-name="baseline-credit_card-24px" d="M853.333 789.333h-682.667c-47.36 0-84.907-37.973-84.907-85.333l-0.427-512c0-47.36 37.973-85.333 85.333-85.333h682.667c47.36 0 85.333 37.973 85.333 85.333v512c0 47.36-37.973 85.333-85.333 85.333zM853.333 192h-682.667v256h682.667v-256zM853.333 618.667h-682.667v85.333h682.667v-85.333z" />
<glyph unicode="&#xe908;" glyph-name="baseline-location_on-24px" d="M512 874.667c-165.12 0-298.667-133.547-298.667-298.667 0-224 298.667-554.667 298.667-554.667s298.667 330.667 298.667 554.667c0 165.12-133.547 298.667-298.667 298.667zM512 469.333c-58.88 0-106.667 47.787-106.667 106.667s47.787 106.667 106.667 106.667 106.667-47.787 106.667-106.667-47.787-106.667-106.667-106.667z" />
<glyph unicode="&#xe909;" glyph-name="baseline-person_outline-24px" d="M512 708.267c49.493 0 89.6-40.107 89.6-89.6s-40.107-89.6-89.6-89.6-89.6 40.107-89.6 89.6 40.107 89.6 89.6 89.6zM512 324.267c126.72 0 260.267-62.293 260.267-89.6v-46.933h-520.533v46.933c0 27.307 133.547 89.6 260.267 89.6zM512 789.333c-94.293 0-170.667-76.373-170.667-170.667s76.373-170.667 170.667-170.667 170.667 76.373 170.667 170.667-76.373 170.667-170.667 170.667zM512 405.333c-113.92 0-341.333-57.173-341.333-170.667v-128h682.667v128c0 113.493-227.413 170.667-341.333 170.667z" />
<glyph unicode="&#xe90a;" glyph-name="baseline-query_builder-24px" d="M511.573 874.667c-235.52 0-426.24-191.147-426.24-426.667s190.72-426.667 426.24-426.667c235.947 0 427.093 191.147 427.093 426.667s-191.147 426.667-427.093 426.667zM512 106.667c-188.587 0-341.333 152.747-341.333 341.333s152.747 341.333 341.333 341.333 341.333-152.747 341.333-341.333-152.747-341.333-341.333-341.333zM533.333 661.333h-64v-256l224-134.4 32 52.48-192 113.92z" />
<glyph unicode="&#xe90b;" glyph-name="baseline-shopping_cart-24px" d="M298.667 192c-46.933 0-84.907-38.4-84.907-85.333s37.973-85.333 84.907-85.333 85.333 38.4 85.333 85.333-38.4 85.333-85.333 85.333zM42.667 874.667v-85.333h85.333l153.6-323.84-57.6-104.533c-6.827-11.947-10.667-26.027-10.667-40.96 0-46.933 38.4-85.333 85.333-85.333h512v85.333h-494.080c-5.973 0-10.667 4.693-10.667 10.667l1.28 5.12 38.4 69.547h317.867c32 0 60.16 17.493 74.667 43.947l152.747 276.907c3.413 5.973 5.12 13.227 5.12 20.48 0 23.467-19.2 42.667-42.667 42.667h-631.040l-40.107 85.333h-139.52zM725.333 192c-46.933 0-84.907-38.4-84.907-85.333s37.973-85.333 84.907-85.333 85.333 38.4 85.333 85.333-38.4 85.333-85.333 85.333z" />
<glyph unicode="&#xe90c;" glyph-name="outline-calendar_today-24px" d="M853.333 832h-42.667v85.333h-85.333v-85.333h-426.667v85.333h-85.333v-85.333h-42.667c-46.933 0-85.333-38.4-85.333-85.333v-682.667c0-46.933 38.4-85.333 85.333-85.333h682.667c46.933 0 85.333 38.4 85.333 85.333v682.667c0 46.933-38.4 85.333-85.333 85.333zM853.333 64h-682.667v469.333h682.667v-469.333zM853.333 618.667h-682.667v128h682.667v-128z" />
<glyph unicode="&#xe90d;" glyph-name="outline-comment-24px" d="M938.24 789.333c0 46.933-37.973 85.333-84.907 85.333h-682.667c-46.933 0-85.333-38.4-85.333-85.333v-512c0-46.933 38.4-85.333 85.333-85.333h597.333l170.667-170.667-0.427 768zM853.333 789.333v-561.92l-49.92 49.92h-632.747v512h682.667zM256 448h512v-85.333h-512v85.333zM256 576h512v-85.333h-512v85.333zM256 704h512v-85.333h-512v85.333z" />
<glyph unicode="&#xe90e;" glyph-name="outline-credit_card-24px" d="M853.333 789.333h-682.667c-47.36 0-84.907-37.973-84.907-85.333l-0.427-512c0-47.36 37.973-85.333 85.333-85.333h682.667c47.36 0 85.333 37.973 85.333 85.333v512c0 47.36-37.973 85.333-85.333 85.333zM853.333 192h-682.667v256h682.667v-256zM853.333 618.667h-682.667v85.333h682.667v-85.333z" />
<glyph unicode="&#xe90f;" glyph-name="outline-location_on-24px" d="M512 874.667c-165.12 0-298.667-133.547-298.667-298.667 0-224 298.667-554.667 298.667-554.667s298.667 330.667 298.667 554.667c0 165.12-133.547 298.667-298.667 298.667zM298.667 576c0 117.76 95.573 213.333 213.333 213.333s213.333-95.573 213.333-213.333c0-122.88-122.88-306.773-213.333-421.547-88.747 113.92-213.333 299.947-213.333 421.547zM618.667 576c0-58.91-47.756-106.667-106.667-106.667s-106.667 47.756-106.667 106.667c0 58.91 47.756 106.667 106.667 106.667s106.667-47.756 106.667-106.667z" />
<glyph unicode="&#xe910;" glyph-name="outline-person_outline-24px" d="M512 708.267c49.493 0 89.6-40.107 89.6-89.6s-40.107-89.6-89.6-89.6-89.6 40.107-89.6 89.6 40.107 89.6 89.6 89.6zM512 324.267c126.72 0 260.267-62.293 260.267-89.6v-46.933h-520.533v46.933c0 27.307 133.547 89.6 260.267 89.6zM512 789.333c-94.293 0-170.667-76.373-170.667-170.667s76.373-170.667 170.667-170.667 170.667 76.373 170.667 170.667-76.373 170.667-170.667 170.667zM512 405.333c-113.92 0-341.333-57.173-341.333-170.667v-128h682.667v128c0 113.493-227.413 170.667-341.333 170.667z" />
<glyph unicode="&#xe911;" glyph-name="outline-query_builder-24px" d="M511.573 874.667c-235.52 0-426.24-191.147-426.24-426.667s190.72-426.667 426.24-426.667c235.947 0 427.093 191.147 427.093 426.667s-191.147 426.667-427.093 426.667zM512 106.667c-188.587 0-341.333 152.747-341.333 341.333s152.747 341.333 341.333 341.333 341.333-152.747 341.333-341.333c0-188.587-152.747-341.333-341.333-341.333zM533.333 661.333h-64v-256l224-134.4 32 52.48-192 113.92z" />
<glyph unicode="&#xe912;" glyph-name="outline-shopping_cart-24px" d="M663.467 405.333c32 0 60.16 17.493 74.667 43.947l152.747 276.907c15.787 28.16-4.693 63.147-37.12 63.147h-631.467l-40.107 85.333h-139.52v-85.333h85.333l153.6-323.84-57.6-104.107c-31.147-57.173 9.813-126.72 74.667-126.72h512v85.333h-512l46.933 85.333h317.867zM262.827 704h518.4l-117.76-213.333h-299.52l-101.12 213.333zM298.667 192c-46.933 0-84.907-38.4-84.907-85.333s37.973-85.333 84.907-85.333c46.933 0 85.333 38.4 85.333 85.333s-38.4 85.333-85.333 85.333zM725.333 192c-46.933 0-84.907-38.4-84.907-85.333s37.973-85.333 84.907-85.333c46.933 0 85.333 38.4 85.333 85.333s-38.4 85.333-85.333 85.333z" />
<glyph unicode="&#xe913;" glyph-name="round-calendar_today-24px" d="M853.333 832h-42.667v42.667c0 23.467-19.2 42.667-42.667 42.667v0c-23.467 0-42.667-19.2-42.667-42.667v-42.667h-426.667v42.667c0 23.467-19.2 42.667-42.667 42.667v0c-23.467 0-42.667-19.2-42.667-42.667v-42.667h-42.667c-46.933 0-85.333-38.4-85.333-85.333v-682.667c0-46.933 38.4-85.333 85.333-85.333h682.667c46.933 0 85.333 38.4 85.333 85.333v682.667c0 46.933-38.4 85.333-85.333 85.333zM810.667 64h-597.333c-23.467 0-42.667 19.2-42.667 42.667v512h682.667v-512c0-23.467-19.2-42.667-42.667-42.667z" />
<glyph unicode="&#xe914;" glyph-name="round-comment-24px" d="M938.24 789.333c0 46.933-37.973 85.333-84.907 85.333h-682.667c-46.933 0-85.333-38.4-85.333-85.333v-512c0-46.933 38.4-85.333 85.333-85.333h597.333l170.667-170.667-0.427 768zM725.333 362.667h-426.667c-23.467 0-42.667 19.2-42.667 42.667v0c0 23.467 19.2 42.667 42.667 42.667h426.667c23.467 0 42.667-19.2 42.667-42.667v0c0-23.467-19.2-42.667-42.667-42.667zM725.333 490.667h-426.667c-23.467 0-42.667 19.2-42.667 42.667v0c0 23.467 19.2 42.667 42.667 42.667h426.667c23.467 0 42.667-19.2 42.667-42.667v0c0-23.467-19.2-42.667-42.667-42.667zM725.333 618.667h-426.667c-23.467 0-42.667 19.2-42.667 42.667v0c0 23.467 19.2 42.667 42.667 42.667h426.667c23.467 0 42.667-19.2 42.667-42.667v0c0-23.467-19.2-42.667-42.667-42.667z" />
<glyph unicode="&#xe915;" glyph-name="round-credit_card-24px" d="M853.333 789.333h-682.667c-47.36 0-84.907-37.973-84.907-85.333l-0.427-512c0-47.36 37.973-85.333 85.333-85.333h682.667c47.36 0 85.333 37.973 85.333 85.333v512c0 47.36-37.973 85.333-85.333 85.333zM810.667 192h-597.333c-23.467 0-42.667 19.2-42.667 42.667v213.333h682.667v-213.333c0-23.467-19.2-42.667-42.667-42.667zM853.333 618.667h-682.667v85.333h682.667v-85.333z" />
<glyph unicode="&#xe916;" glyph-name="round-location_on-24px" d="M512 874.667c-165.12 0-298.667-133.547-298.667-298.667 0-177.92 188.587-423.253 266.24-516.693 17.067-20.48 48.213-20.48 65.28 0 77.227 93.44 265.813 338.773 265.813 516.693 0 165.12-133.547 298.667-298.667 298.667zM512 469.333c-58.88 0-106.667 47.787-106.667 106.667s47.787 106.667 106.667 106.667 106.667-47.787 106.667-106.667-47.787-106.667-106.667-106.667z" />
<glyph unicode="&#xe917;" glyph-name="round-person_outline-24px" d="M512 708.267c49.493 0 89.6-40.107 89.6-89.6s-40.107-89.6-89.6-89.6-89.6 40.107-89.6 89.6 40.107 89.6 89.6 89.6zM512 324.267c126.72 0 260.267-62.293 260.267-89.6v-46.933h-520.533v46.933c0 27.307 133.547 89.6 260.267 89.6zM512 789.333c-94.293 0-170.667-76.373-170.667-170.667s76.373-170.667 170.667-170.667 170.667 76.373 170.667 170.667-76.373 170.667-170.667 170.667zM512 405.333c-113.92 0-341.333-57.173-341.333-170.667v-85.333c0-23.467 19.2-42.667 42.667-42.667h597.333c23.467 0 42.667 19.2 42.667 42.667v85.333c0 113.493-227.413 170.667-341.333 170.667z" />
<glyph unicode="&#xe918;" glyph-name="round-query_builder-24px" d="M511.573 874.667c-235.52 0-426.24-191.147-426.24-426.667s190.72-426.667 426.24-426.667c235.947 0 427.093 191.147 427.093 426.667s-191.147 426.667-427.093 426.667zM512 106.667c-188.587 0-341.333 152.747-341.333 341.333s152.747 341.333 341.333 341.333 341.333-152.747 341.333-341.333c0-188.587-152.747-341.333-341.333-341.333zM502.613 661.333h-2.56c-17.067 0-30.72-13.653-30.72-30.72v-201.387c0-14.933 7.68-29.013 20.907-36.693l177.067-106.24c14.507-8.533 33.28-4.267 41.813 10.24v0c8.96 14.507 4.267 33.707-10.667 42.24l-165.12 98.133v193.707c0 17.067-13.653 30.72-30.72 30.72z" />
<glyph unicode="&#xe919;" glyph-name="round-shopping_cart-24px" d="M298.667 192c-46.933 0-84.907-38.4-84.907-85.333s37.973-85.333 84.907-85.333 85.333 38.4 85.333 85.333-38.4 85.333-85.333 85.333zM42.667 832v0c0-23.467 19.2-42.667 42.667-42.667h42.667l153.6-323.84-57.6-104.107c-31.147-57.173 9.813-126.72 74.667-126.72h469.333c23.467 0 42.667 19.2 42.667 42.667v0c0 23.467-19.2 42.667-42.667 42.667h-469.333l46.933 85.333h317.867c32 0 60.16 17.493 74.667 43.947l152.747 276.907c15.787 28.16-4.693 63.147-37.12 63.147h-631.467l-28.587 61.013c-6.827 14.933-22.187 24.32-38.4 24.32h-69.973c-23.467 0-42.667-19.2-42.667-42.667zM725.333 192c-46.933 0-84.907-38.4-84.907-85.333s37.973-85.333 84.907-85.333 85.333 38.4 85.333 85.333-38.4 85.333-85.333 85.333z" />
<glyph unicode="&#xe91a;" glyph-name="sharp-calendar_today-24px" d="M938.667 832h-128v85.333h-85.333v-85.333h-426.667v85.333h-85.333v-85.333h-128v-853.333h853.333v853.333zM853.333 64h-682.667v554.667h682.667v-554.667z" />
<glyph unicode="&#xe91b;" glyph-name="sharp-comment-24px" d="M938.24 874.667h-852.907v-682.667h682.667l170.667-170.667-0.427 853.333zM768 362.667h-512v85.333h512v-85.333zM768 490.667h-512v85.333h512v-85.333zM768 618.667h-512v85.333h512v-85.333z" />
<glyph unicode="&#xe91c;" glyph-name="sharp-credit_card-24px" d="M938.667 789.333h-852.907l-0.427-682.667h853.333v682.667zM853.333 192h-682.667v256h682.667v-256zM853.333 618.667h-682.667v85.333h682.667v-85.333z" />
<glyph unicode="&#xe91d;" glyph-name="sharp-location_on-24px" d="M512 874.667c-165.12 0-298.667-133.547-298.667-298.667 0-224 298.667-554.667 298.667-554.667s298.667 330.667 298.667 554.667c0 165.12-133.547 298.667-298.667 298.667zM512 469.333c-58.88 0-106.667 47.787-106.667 106.667s47.787 106.667 106.667 106.667 106.667-47.787 106.667-106.667-47.787-106.667-106.667-106.667z" />
<glyph unicode="&#xe91e;" glyph-name="sharp-person_outline-24px" d="M512 708.267c49.493 0 89.6-40.107 89.6-89.6s-40.107-89.6-89.6-89.6-89.6 40.107-89.6 89.6 40.107 89.6 89.6 89.6zM512 324.267c126.72 0 260.267-62.293 260.267-89.6v-46.933h-520.533v46.933c0 27.307 133.547 89.6 260.267 89.6zM512 789.333c-94.293 0-170.667-76.373-170.667-170.667s76.373-170.667 170.667-170.667 170.667 76.373 170.667 170.667-76.373 170.667-170.667 170.667zM512 405.333c-113.92 0-341.333-57.173-341.333-170.667v-128h682.667v128c0 113.493-227.413 170.667-341.333 170.667z" />
<glyph unicode="&#xe91f;" glyph-name="sharp-query_builder-24px" d="M511.573 874.667c-235.52 0-426.24-191.147-426.24-426.667s190.72-426.667 426.24-426.667c235.947 0 427.093 191.147 427.093 426.667s-191.147 426.667-427.093 426.667zM512 106.667c-188.587 0-341.333 152.747-341.333 341.333s152.747 341.333 341.333 341.333 341.333-152.747 341.333-341.333c0-188.587-152.747-341.333-341.333-341.333zM533.333 661.333h-64v-256l224-134.4 32 52.48-192 113.92z" />
<glyph unicode="&#xe920;" glyph-name="sharp-shopping_cart-24px" d="M725.333 192c-46.933 0-84.907-38.4-84.907-85.333s37.973-85.333 84.907-85.333 85.333 38.4 85.333 85.333c0 46.933-38.4 85.333-85.333 85.333zM298.667 192c-46.933 0-84.907-38.4-84.907-85.333s37.973-85.333 84.907-85.333 85.333 38.4 85.333 85.333c0 46.933-38.4 85.333-85.333 85.333zM298.667 320l46.933 85.333h317.867c32 0 60.16 17.493 74.667 43.947l187.733 340.053h-703.573l-40.107 85.333h-139.52v-85.333h85.333l153.6-323.84-127.147-230.827h656.213v85.333h-512z" />
<glyph unicode="&#xe928;" glyph-name="icon-01" d="M320 437.333c-52.928 0-96 43.072-96 96s43.072 96 96 96 96-43.072 96-96-43.072-96-96-96zM320 608c-29.376 0-53.333-23.957-53.333-53.333s23.957-53.333 53.333-53.333 53.333 23.957 53.333 53.333-23.957 53.333-53.333 53.333zM787.093 821.333h-550.187c-54.187 0-98.24-44.053-98.24-98.24v-550.165c0-54.187 44.053-98.24 98.24-98.24h550.165c54.165 0 98.24 44.053 98.24 98.24v550.165c0.021 54.187-44.053 98.24-98.219 98.24zM239.68 778.667h544.619c32.149 0 58.347-26.219 58.347-58.347v-333.12l-115.157 114.496c-28.032 27.989-73.856 27.989-101.973 0l-215.787-214.571-28.864 26.923c-23.744 22.165-62.421 22.165-86.165 0l-113.365-105.707v511.979c0 32.128 26.219 58.347 58.347 58.347zM784.32 117.333h-544.64c-28.267 0-51.904 20.288-57.216 47.040 3.477 0.64 6.827 1.92 9.515 4.437l129.237 120.491c9.109 8.491 24.021 8.491 33.131 0l178.965-166.805c3.669-3.413 8.405-5.163 13.205-5.163 4.843 0 9.643 1.664 13.312 5.077 7.339 6.827 7.339 17.899 0 24.725l-122.304 114.069 214.848 213.611c13.333 13.163 34.944 13.163 48.171 0l130.944-130.091c3.115-3.115 7.104-4.608 11.179-5.099v-163.947c0-32.128-26.219-58.347-58.347-58.347z" />
<glyph unicode="&#xe929;" glyph-name="icon-02" d="M553.152 789.333h-85.44l-179.712-533.333h76.288l35.947 106.667h226.069l36.565-106.667h73.131l-182.848 533.333zM421.803 426.667l90.475 268.523 92.053-268.523h-182.528zM288 170.667h448v-64h-448v64z" />
<glyph unicode="&#xe92a;" glyph-name="icon-03" d="M320 512c-40.896 0-74.667-32.896-74.667-74.667 0-40.896 32.875-74.667 74.667-74.667 41.771 0 74.667 32.896 74.667 74.667 0 40.896-32.896 74.667-74.667 74.667zM320 400c-20.459 0-37.333 16.896-37.333 37.333s16.875 37.333 37.333 37.333c20.437 0 37.333-16.896 37.333-37.333s-16.896-37.333-37.333-37.333zM672 608c0 29.632-23.701 53.333-53.333 53.333s-53.333-23.701-53.333-53.333 23.701-53.333 53.333-53.333 53.333 24.533 53.333 53.333zM619.499 590.229c-10.155 0-17.771 7.595-17.771 17.771s7.616 17.771 17.771 17.771c10.176 0 17.792-7.595 17.792-17.771s-8.469-17.771-17.792-17.771zM437.333 661.333c-35.093 0-64-28.928-64-64s28.907-64 64-64c35.072 0 64 28.928 64 64s-28.928 64-64 64zM437.333 569.28c-14.912 0-27.179 12.288-27.179 27.179s12.267 27.157 27.179 27.157c14.891 0 27.157-12.267 27.157-27.157s-12.267-27.179-27.157-27.179zM736 533.333c-23.787 0-42.667-18.88-42.667-42.667s18.88-42.667 42.667-42.667 42.667 18.88 42.667 42.667-18.88 42.667-42.667 42.667zM736 476.715c-7.403 0-13.952 6.571-13.952 13.952s6.549 13.952 13.952 13.952c7.381 0 13.931-6.592 13.931-13.952s-6.549-13.952-13.931-13.952zM693.312 362.667c-23.787 0-42.645-18.88-42.645-42.667s18.859-42.667 42.645-42.667 42.667 18.88 42.667 42.667c0.811 22.976-18.88 42.667-42.667 42.667zM693.312 306.048c-7.381 0-13.931 6.592-13.931 13.952s6.571 13.952 13.931 13.952c7.403 0 13.931-6.592 13.931-13.952 0-8.213-5.717-13.952-13.931-13.952zM561.493 828.949c-118.571 14.677-235.371-24.213-322.304-105.451-86.933-82.133-130.859-196.203-120.32-312.896 0-0.853 0-1.728 0-2.581 5.269-57.92 32.469-101.995 78.165-129.664 59.712-35.435 144.021-36.288 226.581-2.581l13.163 5.184c14.933 6.037 30.741 4.309 43.051-4.331 13.163-8.64 20.181-22.464 20.181-38.016 0-11.243-0.875-23.339-3.499-33.707-10.539-51.008-0.875-95.083 27.221-120.149 12.309-10.389 30.741-20.757 58.859-20.757 12.288 0 26.347 1.728 43.051 6.912 80.789 25.067 150.165 72.597 201.109 139.157 52.715 67.413 79.936 148.672 79.936 233.365 0.853 195.349-147.584 361.323-345.195 385.515zM783.701 242.069c-43.051-56.192-105.387-98.539-173.888-120.149-14.933-4.331-36.011-7.787-48.32 2.581-12.288 11.243-16.683 38.037-9.643 69.141 2.624 14.699 4.373 29.397 4.373 44.949 0 33.707-16.683 64.811-44.8 82.987-16.683 11.221-36.885 16.427-56.213 16.427-13.163 0-26.325-2.603-38.635-7.765l-13.184-5.184c-64.981-26.816-132.608-26.816-176.512-0.875-30.741 18.155-48.32 47.552-51.819 88.171v2.581c-8.789 100.267 28.971 198.805 103.616 268.821 74.645 70.891 175.637 103.723 277.525 91.627 168.619-20.736 295.979-163.349 295.979-331.904 0.021-73.493-23.68-142.635-68.48-201.408z" />
<glyph unicode="&#xe92b;" glyph-name="icon-04" d="M690.176 821.333h-424.064c-14.976 0-27.904-9.131-32.939-23.253-4.971-14.037-0.768-29.227 10.688-38.656 6.059-5.035 10.752-11.093 13.952-17.941 3.264-7.040 4.992-14.741 4.992-22.293v-259.733c0-61.141 49.707-110.891 110.805-110.891h64.811c2.859 0 5.419-1.109 7.36-3.2s2.859-4.693 2.667-7.509l-11.904-180.757c-1.365-21.227 6.123-42.304 20.587-57.835 14.549-15.616 35.115-24.576 56.427-24.576 42.581 0 77.227 34.667 77.227 77.291 0 1.792 0 3.456-0.128 5.141l-11.904 180.757c-0.192 2.816 0.747 5.397 2.709 7.509 1.941 2.091 4.48 3.2 7.339 3.2h64.811c61.099 0 110.805 49.749 110.805 110.891v287.573c0.043 40.96-33.301 74.283-74.24 74.283zM660.48 388.629h-65.408c-16.768 0-32.939-6.912-44.331-18.965-11.456-12.053-17.387-28.437-16.277-44.907l12.011-180.821c0-14.677-12.288-26.603-27.392-26.603-7.701 0-14.848 3.051-20.075 8.555-5.141 5.419-7.701 12.459-7.211 19.84l12.011 179.029c1.088 16.469-4.843 32.853-16.277 44.907s-27.584 18.987-44.331 18.987h-65.429c-33.792 0-61.291 26.859-61.291 59.861v10.155h405.333v-10.197c-0.021-32.981-27.52-59.84-61.333-59.84zM721.792 754.069v-231.403h-402.155v202.987c0 15.061-3.349 30.379-9.707 44.288-1.365 2.987-2.88 5.888-4.523 8.725h392.192c13.355 0 24.192-11.051 24.192-24.597z" />
<glyph unicode="&#xe92c;" glyph-name="icon-05" d="M575.125 181.483h-127.872c-10.048 0-18.261-8.128-18.261-18.069 0-9.92 8.235-18.048 18.261-18.048h127.872c10.048 0 18.261 8.128 18.261 18.048 0 9.941-8.213 18.069-18.261 18.069zM676.416 832h-328.811c-35.605 0-63.915-28.011-63.915-63.253v-641.493c0-35.243 28.309-63.253 63.915-63.253h328.789c35.627 0 63.936 28.011 63.936 63.253v641.493c0 35.243-28.309 63.253-63.915 63.253zM703.808 263.36h-383.573v93.397h383.573v-93.397zM345.792 795.861c0.917 0 0.917 0 1.835 0h328.789c14.613 0.896 26.475-10.837 27.392-25.301 0-0.896 0-0.896 0-1.813v-401.195h-383.573v401.195c-0.917 14.464 10.923 26.219 25.557 27.115zM678.229 100.139c-0.917 0-0.917 0-1.835 0h-328.789c-14.613-0.917-26.475 10.837-27.371 25.301 0 0.896 0 0.896 0 1.813v99.371h383.573v-99.371c0.896-14.464-10.944-26.219-25.579-27.115z" />
<glyph unicode="&#xe92d;" glyph-name="icon-06" d="M676.395 832h-328.789c-35.627 0-63.936-28.011-63.936-63.253v-641.515c0-35.243 28.309-63.232 63.936-63.232h328.789c35.627 0 63.936 28.011 63.936 63.232v641.515c0 35.243-28.309 63.253-63.936 63.253zM703.787 770.56c0-0.896 0-0.896 0-1.813v-505.984h-279.339v533.099h251.968c14.592 0.896 26.453-10.837 27.371-25.301zM320.64 262.805v512.192c2.261 11.456 12.693 20.075 25.131 20.864 0.917 0 0.917 0 1.835 0h66.453v-533.035h-93.419zM678.229 100.139c-0.917 0-0.917 0-1.835 0h-328.789c-14.613-0.896-26.475 10.837-27.392 25.301 0 0.896 0 0.896 0 1.792v99.392h383.573v-99.392c0.917-14.443-10.944-26.197-25.557-27.093zM575.936 181.483h-127.872c-10.048 0-18.24-8.128-18.24-18.069s8.213-18.069 18.24-18.069h127.872c10.048 0 18.24 8.128 18.24 18.069 0.021 9.941-8.192 18.069-18.24 18.069z" />
</font>
</defs>
</svg>
