<?xml version="1.0" encoding="utf-8"?>
<!-- Generator: Adobe Illustrator 16.0.0, SVG Export Plug-In . SVG Version: 6.00 Build 0)  -->
<!DOCTYPE svg PUBLIC "-//W3C//DTD SVG 1.1//EN" "http://www.w3.org/Graphics/SVG/1.1/DTD/svg11.dtd">
<svg version="1.1" id="Capa_1" xmlns="http://www.w3.org/2000/svg" xmlns:xlink="http://www.w3.org/1999/xlink" x="0px" y="0px"
	 width="511px" height="511px" viewBox="0 0 511 511" enable-background="new 0 0 511 511" xml:space="preserve">
<g>
	<image overflow="visible" opacity="0.75" width="537" height="537" xlink:href="7926373D.png"  transform="matrix(1 0 0 1 -1 -3)">
	</image>
	<g>
		<linearGradient id="SVGID_1_" gradientUnits="userSpaceOnUse" x1="84.7368" y1="426.2646" x2="426.2644" y2="84.7371">
			<stop  offset="0" style="stop-color:#4A72B2"/>
			<stop  offset="1" style="stop-color:#002E82"/>
		</linearGradient>
		<path fill="url(#SVGID_1_)" d="M497,255.5C497,388.87,388.87,497,255.5,497C122.129,497,14,388.87,14,255.5
			C14,122.129,122.129,14,255.5,14C388.87,14,497,122.129,497,255.5z"/>
	</g>
</g>
<polygon fill="#FFFFFF" points="110.565,285.574 275.86,372.342 303.489,359.739 147.406,203.169 "/>
<polygon fill="#FF6666" points="86.813,337.926 209.451,401.912 257.44,380.099 103.78,300.117 "/>
<path fill="#FF6666" d="M43.673,434.388c-4.848,17.451,11.148,32.963,28.599,28.6l52.836-23.267L57.73,404.334L43.673,434.388z"/>
<polygon fill="#FFFFFF" points="63.547,389.793 143.042,431.479 191.032,410.152 80.513,351.983 "/>
<path fill="#FFFFFF" d="M223.993,241.949L223.993,241.949c2.424,2.423,6.787,2.423,9.21,0l15.512-15.996
	c2.424-2.425,2.424-6.302,0-8.727c-2.423-2.422-6.301-2.422-8.725,0l-15.997,15.996
	C221.569,235.648,221.569,239.525,223.993,241.949z"/>
<path fill="#FF3333" d="M255.501,200.747c-2.423,2.423-2.423,6.302,0,8.725l0,0c2.424,2.425,6.302,2.425,8.726,0l9.694-9.694
	c35.87-36.839,6.787-73.195,6.787-73.68c-2.424-2.908-6.302-2.908-8.726-0.97c-2.909,2.424-2.909,6.302-0.97,8.726
	c0.97,0.97,21.813,28.115-5.817,56.714L255.501,200.747z"/>
<path fill="#FF3333" d="M283.131,256.976l-18.419,17.449c-2.424,2.425-2.424,6.302,0,8.727l0,0c2.423,2.423,6.301,2.423,8.725,0
	l18.42-17.449c2.424-2.426,2.424-6.303,0-8.727l0,0C289.917,254.553,286.039,254.553,283.131,256.976z"/>
<path fill="#FFFFFF" d="M298.643,251.159c2.423,2.423,6.301,2.423,8.725,0l9.211-8.726l0,0c1.454-1.455,2.908-2.424,4.36-3.877
	c2.909-2.425,2.909-6.302,0.972-8.726c-2.424-2.909-6.302-2.909-8.726-0.969c-1.939,1.454-3.394,2.909-5.332,4.362l0,0l0,0
	l-9.21,8.726C296.219,244.857,295.734,248.735,298.643,251.159C298.158,251.159,298.158,251.159,298.643,251.159z"/>
<path fill="#66CC66" d="M382.016,235.648c2.424-2.909,1.939-6.787-0.97-8.727c-0.969-0.484-18.419-14.542-41.687-10.664
	c-3.394,0.485-5.817,3.878-5.332,7.271c0,1.454,0.969,2.425,1.938,3.393c1.454,1.455,3.394,1.94,5.332,1.94
	c17.936-2.908,31.508,7.756,31.508,8.241C375.714,239.041,380.077,238.557,382.016,235.648z"/>
<path fill="#66CC66" d="M190.546,208.018c3.394,1.454,6.787,0,8.241-3.394l10.179-24.236c1.455-3.393,0-6.786-3.393-8.241
	c-3.393-1.454-6.786,0-8.24,3.394l-10.18,24.236c-0.969,2.423-0.485,5.332,1.454,6.786
	C189.092,207.048,189.577,207.533,190.546,208.018z"/>
<path fill="#FFFFFF" d="M190.063,101.861c0.969,0.484,25.206,15.027,18.42,44.595l0,0c0,0.485-0.485,1.455-0.485,1.939
	c-0.484,2.424,0,4.363,1.454,6.302c0.97,0.97,1.94,1.454,2.909,1.454c3.393,0.969,6.786-0.97,7.755-4.362
	c0-0.97,0.485-1.455,0.485-2.424l0,0c7.271-31.508-13.087-51.867-24.721-58.653c-2.909-1.939-6.787-0.485-8.725,2.423
	C185.699,96.044,186.668,99.922,190.063,101.861z"/>
<path fill="#66CC66" d="M353.416,294.301c-1.453-3.394-4.847-4.848-8.24-3.394l-42.655,17.935c-3.394,1.455-4.848,4.848-3.394,8.24
	c0.485,0.971,0.97,1.454,1.455,1.939c1.938,1.938,4.361,2.424,6.785,1.453l42.656-17.45
	C353.416,301.571,354.87,297.693,353.416,294.301z"/>
<path fill="#FF3333" d="M415.947,311.751c-0.484-0.971-10.664-18.905-32.478-24.723c-3.393-0.969-6.786,0.971-7.755,4.363
	c-0.485,2.424,0,4.363,1.453,5.817c0.971,0.969,1.939,1.453,2.909,1.453c16.481,4.362,24.721,18.42,24.721,18.42
	c1.939,2.909,5.333,3.878,8.726,2.425C416.916,319.021,417.887,315.144,415.947,311.751z"/>
<circle fill="#CCFF33" cx="257.44" cy="106.708" r="6.786"/>
<circle fill="#CCFF33" cx="172.127" cy="160.999" r="6.786"/>
<circle fill="#CCFF33" cx="403.344" cy="253.098" r="6.787"/>
<circle fill="#CCFF33" cx="347.114" cy="334.048" r="6.786"/>
<circle fill="#CCFF33" cx="322.879" cy="154.213" r="6.786"/>
</svg>
