<?xml version="1.0" encoding="utf-8"?>
<!-- Generator: Adobe Illustrator 22.0.0, SVG Export Plug-In . SVG Version: 6.00 Build 0)  -->
<svg version="1.1" id="Capa_1" xmlns="http://www.w3.org/2000/svg" xmlns:xlink="http://www.w3.org/1999/xlink" x="0px" y="0px"
	 viewBox="0 0 158.4 49.7" style="enable-background:new 0 0 158.4 49.7;" xml:space="preserve">
<style type="text/css">
	.st0{fill:#4D4D4D;}
	.st1{fill:#660066;}
	.st2{clip-path:url(#SVGID_2_);fill:url(#SVGID_3_);}
	.st3{clip-path:url(#SVGID_5_);fill:url(#SVGID_6_);}
	.st4{clip-path:url(#SVGID_8_);fill:url(#SVGID_9_);}
	.st5{fill:url(#SVGID_10_);}
	.st6{fill:url(#SVGID_11_);}
	.st7{fill:#C0004E;}
	.st8{fill:#5C004E;}
</style>
<path class="st0" d="M49.7,27.9c0,0.9,0.2,1.7,0.8,2.2c0.5,0.5,1.2,0.8,2.1,0.8c0.4,0,0.8,0,1-0.1c0.3-0.1,0.5-0.1,0.7-0.1v-5.3
	c-0.2-0.1-0.5-0.2-0.9-0.3c-0.3-0.1-0.8-0.2-1.2-0.2c-0.9,0-1.6,0.3-2,0.8C49.8,26.3,49.7,27,49.7,27.9L49.7,27.9z M56.7,32.3
	c-0.5,0.1-1.1,0.2-1.9,0.3c-0.8,0.1-1.5,0.2-2.3,0.2s-1.6-0.1-2.3-0.3c-0.6-0.2-1.2-0.5-1.7-1c-0.5-0.4-0.8-0.9-1.1-1.5
	c-0.2-0.6-0.3-1.3-0.3-2c0-0.8,0.1-1.4,0.3-2c0.2-0.6,0.5-1.1,0.9-1.5c0.4-0.4,0.9-0.8,1.5-1c0.6-0.2,1.3-0.3,2-0.3
	c0.5,0,1,0.1,1.3,0.2c0.4,0.1,0.8,0.2,1,0.3v-4.5l2.4-0.3V32.3L56.7,32.3z M68.7,27.9c0,0.8-0.1,1.4-0.3,2c-0.2,0.6-0.6,1.1-1,1.6
	c-0.5,0.4-1,0.8-1.6,1c-0.6,0.2-1.3,0.3-2.1,0.3c-0.8,0-1.4-0.1-2.1-0.3s-1.2-0.6-1.6-1s-0.8-0.9-1-1.6c-0.2-0.6-0.3-1.3-0.3-2
	c0-0.8,0.1-1.4,0.3-2s0.6-1.1,1-1.5c0.5-0.4,1-0.8,1.6-1c0.6-0.2,1.3-0.3,2-0.3c0.8,0,1.4,0.1,2.1,0.3c0.6,0.2,1.2,0.6,1.6,1
	c0.5,0.4,0.8,0.9,1,1.5C68.6,26.5,68.7,27.2,68.7,27.9z M66.2,27.9c0-0.9-0.2-1.6-0.7-2.2c-0.5-0.5-1.1-0.8-1.9-0.8
	s-1.4,0.3-1.9,0.8C61.2,26.2,61,27,61,27.9s0.2,1.7,0.7,2.2c0.5,0.5,1.1,0.8,1.9,0.8s1.4-0.3,1.9-0.8S66.2,28.8,66.2,27.9z
	 M70.6,23.6c0.5-0.1,1.1-0.2,1.9-0.3s1.6-0.2,2.5-0.2c0.9,0,1.6,0.1,2.1,0.3c0.6,0.2,1,0.5,1.4,0.9c0.3,0.3,0.6,0.8,0.8,1.3
	c0.1,0.5,0.2,1.1,0.2,1.7v5.2H77v-4.9c0-0.5-0.1-0.9-0.1-1.3c-0.1-0.3-0.2-0.6-0.3-0.9c-0.2-0.2-0.4-0.4-0.7-0.5
	c-0.3-0.1-0.6-0.2-1-0.2c-0.3,0-0.6,0-1,0.1C73.4,25,73.2,25,73,25v7.5h-2.4L70.6,23.6L70.6,23.6z"/>
<path class="st1" d="M83.9,27.9c0,0.9,0.3,1.7,0.8,2.2c0.5,0.5,1.3,0.8,2.2,0.8c0.4,0,0.8,0,1-0.1c0.3-0.1,0.5-0.1,0.7-0.1v-5.2
	c-0.2-0.1-0.5-0.2-0.9-0.3C87.3,25,86.9,25,86.5,25c-0.9,0-1.6,0.3-2,0.8C84,26.3,83.9,27,83.9,27.9L83.9,27.9z M91.2,32.2
	c-0.5,0.1-1.2,0.2-1.9,0.3s-1.6,0.2-2.4,0.2c-0.9,0-1.7-0.1-2.4-0.3c-0.7-0.2-1.3-0.5-1.8-0.9c-0.5-0.4-0.9-0.9-1.1-1.5
	c-0.3-0.6-0.4-1.3-0.4-2c0-0.7,0.1-1.4,0.3-2c0.2-0.6,0.5-1.1,1-1.5c0.4-0.4,0.9-0.8,1.6-1c0.6-0.2,1.3-0.3,2.1-0.3
	c0.5,0,1,0.1,1.4,0.2c0.4,0.1,0.8,0.2,1,0.3v-4.4l2.5-0.3L91.2,32.2L91.2,32.2z M93.2,28c0-0.8,0.1-1.5,0.4-2.1
	c0.3-0.6,0.7-1.1,1.2-1.5c0.5-0.4,1-0.7,1.6-0.9c0.6-0.2,1.3-0.3,1.9-0.3c1.5,0,2.7,0.4,3.6,1.2c0.9,0.8,1.3,2,1.3,3.5
	c0,0.1,0,0.2,0,0.4s0,0.3-0.1,0.4h-7.3c0.1,0.8,0.4,1.3,0.9,1.7c0.5,0.4,1.4,0.6,2.4,0.6c0.6,0,1.2-0.1,1.7-0.1
	c0.5-0.1,0.9-0.2,1.2-0.3l0.3,1.7c-0.1,0.1-0.3,0.1-0.6,0.2s-0.5,0.1-0.9,0.2c-0.3,0.1-0.6,0.1-1,0.1c-0.3,0.1-0.8,0.1-1.1,0.1
	c-1,0-1.8-0.1-2.5-0.3c-0.7-0.2-1.3-0.6-1.8-1c-0.5-0.4-0.8-0.9-1-1.5C93.4,29.2,93.2,28.6,93.2,28L93.2,28z M100.6,27
	c0-0.3-0.1-0.6-0.2-0.8c-0.1-0.3-0.2-0.5-0.4-0.7c-0.2-0.2-0.4-0.3-0.7-0.5c-0.3-0.1-0.6-0.2-1-0.2c-0.4,0-0.8,0.1-1,0.2
	c-0.3,0.1-0.5,0.3-0.8,0.5c-0.2,0.2-0.3,0.4-0.5,0.7C96,26.4,96,26.7,95.9,27H100.6L100.6,27z M111.6,27.7c0-0.9-0.1-1.6-0.4-2.1
	c-0.3-0.4-0.8-0.6-1.6-0.6c-0.3,0-0.6,0-0.9,0.1c-0.3,0.1-0.6,0.1-0.8,0.1v7.3h-2.5v-8.9c0.5-0.1,1.2-0.2,1.9-0.3
	c0.8-0.1,1.6-0.2,2.5-0.2c0.8,0,1.4,0.1,1.9,0.2s0.9,0.4,1.2,0.6c0.2-0.1,0.3-0.2,0.6-0.3s0.5-0.2,0.8-0.3c0.3-0.1,0.6-0.2,0.9-0.2
	c0.3-0.1,0.7-0.1,1-0.1c0.9,0,1.6,0.1,2.1,0.3c0.6,0.2,1,0.5,1.3,0.9c0.3,0.3,0.5,0.8,0.6,1.3s0.2,1.1,0.2,1.7v5.2H118v-4.8
	c0-0.9-0.1-1.6-0.4-2.1c-0.3-0.4-0.8-0.6-1.6-0.6c-0.4,0-0.8,0.1-1.2,0.2s-0.6,0.2-0.8,0.3c0.1,0.3,0.2,0.6,0.2,0.9
	c0.1,0.3,0.1,0.7,0.1,1v5h-2.5L111.6,27.7C111.7,27.7,111.6,27.7,111.6,27.7z M126.9,31c0.8,0,1.4-0.1,1.8-0.1v-2.3
	c-0.1-0.1-0.3-0.1-0.6-0.1c-0.3-0.1-0.6-0.1-0.9-0.1c-0.3,0-0.6,0-0.9,0.1c-0.3,0.1-0.5,0.1-0.8,0.2c-0.2,0.1-0.4,0.2-0.6,0.4
	c-0.1,0.2-0.2,0.4-0.2,0.6c0,0.5,0.2,0.9,0.6,1C125.8,30.9,126.3,31,126.9,31L126.9,31z M126.7,23.1c0.9,0,1.6,0.1,2.1,0.3
	c0.6,0.2,1,0.4,1.4,0.8c0.3,0.3,0.6,0.7,0.8,1.2s0.2,0.9,0.2,1.4v5.6c-0.4,0.1-1,0.2-1.8,0.2c-0.8,0.1-1.7,0.2-2.7,0.2
	c-0.6,0-1.3-0.1-1.8-0.2c-0.5-0.1-1-0.3-1.4-0.5c-0.4-0.2-0.7-0.5-0.9-0.9c-0.2-0.3-0.3-0.8-0.3-1.4c0-0.5,0.1-1,0.3-1.3
	c0.2-0.3,0.6-0.6,1-0.9c0.4-0.2,0.9-0.4,1.4-0.5c0.6-0.1,1.2-0.2,1.7-0.2c0.3,0,0.6,0,0.9,0.1c0.3,0.1,0.6,0.1,1,0.2v-0.3
	c0-0.2-0.1-0.5-0.1-0.7c-0.1-0.2-0.2-0.4-0.3-0.6c-0.2-0.2-0.4-0.3-0.7-0.4c-0.3-0.1-0.6-0.1-1.1-0.1c-0.6,0-1.2,0.1-1.6,0.1
	c-0.5,0.1-0.9,0.2-1.2,0.2l-0.3-1.7c0.3-0.1,0.8-0.2,1.4-0.3C125.4,23.2,126,23.1,126.7,23.1L126.7,23.1z M133.7,23.6
	c0.5-0.1,1.2-0.2,1.9-0.3c0.8-0.1,1.7-0.2,2.6-0.2s1.7,0.1,2.3,0.3c0.6,0.2,1.1,0.5,1.4,0.9c0.3,0.3,0.6,0.8,0.8,1.3
	c0.2,0.5,0.2,1.1,0.2,1.7v5.2h-2.5v-4.8c0-0.5-0.1-0.9-0.1-1.3c-0.1-0.3-0.2-0.6-0.4-0.8c-0.2-0.2-0.4-0.3-0.7-0.5
	c-0.3-0.1-0.7-0.2-1.1-0.2c-0.3,0-0.6,0-1,0.1c-0.3,0.1-0.6,0.1-0.8,0.1v7.3h-2.5L133.7,23.6L133.7,23.6z M147.5,27.9
	c0,0.9,0.3,1.7,0.8,2.2c0.5,0.5,1.3,0.8,2.2,0.8c0.4,0,0.8,0,1-0.1c0.3-0.1,0.5-0.1,0.7-0.1v-5.2c-0.2-0.1-0.5-0.2-0.9-0.3
	c-0.3-0.1-0.8-0.2-1.2-0.2c-0.9,0-1.6,0.3-2,0.8C147.8,26.3,147.5,27,147.5,27.9L147.5,27.9z M154.9,32.2c-0.5,0.1-1.2,0.2-1.9,0.3
	c-0.8,0.1-1.6,0.2-2.4,0.2s-1.7-0.1-2.4-0.3c-0.7-0.2-1.3-0.5-1.7-0.9c-0.5-0.4-0.9-0.9-1.1-1.5c-0.3-0.6-0.4-1.3-0.4-2
	c0-0.7,0.1-1.4,0.3-2s0.5-1.1,1-1.5c0.4-0.4,0.9-0.8,1.6-1c0.6-0.2,1.3-0.3,2.1-0.3c0.5,0,1,0.1,1.4,0.2c0.4,0.1,0.8,0.2,1,0.3v-4.4
	l2.5-0.3V32.2z"/>
<g>
	<g>
		<g>
			<defs>
				<circle id="SVGID_1_" cx="14.8" cy="28.7" r="5"/>
			</defs>
			<clipPath id="SVGID_2_">
				<use xlink:href="#SVGID_1_"  style="overflow:visible;"/>
			</clipPath>
			
				<linearGradient id="SVGID_3_" gradientUnits="userSpaceOnUse" x1="28.5442" y1="36.1029" x2="19.9493" y2="7.6391" gradientTransform="matrix(1 0 0 -1 0 52)">
				<stop  offset="9.566326e-02" style="stop-color:#660066"/>
				<stop  offset="0.2048" style="stop-color:#6F0066"/>
				<stop  offset="0.3855" style="stop-color:#890066"/>
				<stop  offset="0.6155" style="stop-color:#B20067"/>
				<stop  offset="0.8833" style="stop-color:#EA0068"/>
				<stop  offset="0.9745" style="stop-color:#FF0068"/>
			</linearGradient>
			<rect x="0.6" y="3.5" class="st2" width="48.2" height="50.3"/>
		</g>
	</g>
	<g>
		<g>
			<defs>
				<path id="SVGID_4_" d="M41.2,35.4c-0.2,0.7-0.5,1.7-1,2.4v1.4c0,3.6-3,6.6-6.6,6.6H14.4c-2.7,0-5.1-1.7-6.1-4.1
					c-0.5-0.6-1-1.4-1.4-2c0.6,0.9,2,2.1,4.2,2.8c2.1,0.6,4.6,0.5,6.9-0.1c2.3-0.6,5-2.3,6.2-4.1c1.6,1.4,4.7,2.3,7.1,2.4
					c2.4,0.1,4.7-0.5,6.7-1.7C39.8,38,40.8,36.5,41.2,35.4L41.2,35.4z"/>
			</defs>
			<clipPath id="SVGID_5_">
				<use xlink:href="#SVGID_4_"  style="overflow:visible;"/>
			</clipPath>
			
				<linearGradient id="SVGID_6_" gradientUnits="userSpaceOnUse" x1="28.5442" y1="36.1029" x2="19.9493" y2="7.6391" gradientTransform="matrix(1 0 0 -1 0 52)">
				<stop  offset="9.566326e-02" style="stop-color:#660066"/>
				<stop  offset="0.2048" style="stop-color:#6F0066"/>
				<stop  offset="0.3855" style="stop-color:#890066"/>
				<stop  offset="0.6155" style="stop-color:#B20067"/>
				<stop  offset="0.8833" style="stop-color:#EA0068"/>
				<stop  offset="0.9745" style="stop-color:#FF0068"/>
			</linearGradient>
			<rect x="0.6" y="3.5" class="st3" width="48.2" height="50.3"/>
		</g>
	</g>
	<g>
		<g>
			<defs>
				<path id="SVGID_7_" d="M20.7,4.3c-4.9-1.7-9.3,1.7-10.3,6.5c-0.6,2.7-0.2,2.4-1.5,6.4c-0.8-0.3-2.2-1.4-2.8-2
					c-0.3-0.2-0.5-0.5-0.9-0.7c-0.2-0.1-0.5-0.2-0.8-0.1c-0.1,0-0.2,0.1-0.3,0.1c-0.5,0.4-0.7,0.9-0.6,1.4c0.2,1.3,1.9,2.8,2.6,3.4
					c0.4,0.3,0.8,0.6,1.2,0.9l0,0l0,0c1.1,0.7,2.3,1.2,3.5,1.6c0.3,0.1,0.8,0.3,1.1,0.4c-0.1,0.1-0.2,0.1-0.4,0.2
					c-1.5-0.5-3-1.1-3.8-1.7v6c0.1,0,0.1,0,0.2,0h0.6c0.9-2.6,3.4-4.5,6.2-4.5c3.6,0,6.5,3,6.5,6.5s-3,6.5-6.5,6.5
					c-2.9,0-5.3-1.9-6.2-4.5H7.9c-0.6,0-1-0.5-1-1v-2.1c0-0.1,0-0.1,0-0.1c-0.2,0.2-0.3,0.5-0.3,0.8v1.8c0,0.6,0.5,1.3,1.1,1.3h0.1
					V39c-0.3,0.2-0.8,0.3-1.2,0.3c0.6,0.2,1.7,0.1,2.1,0.1c1.7-0.1,3.5-0.8,4.7-1.7c0.8-0.5,1.4-1.2,2.1-1.8c1.7-0.2,3.2-1,4.4-2.1
					c1.4-0.1,2.8,0.2,3.8,1c0.9-1.4,3.1-2.3,5.2-2.1c2.2,0.2,3.6,1.5,5.6,2.2c1.4,0.5,3.4,0.7,5,0.3c0.4-0.1,1.6-0.4,2.1-0.7
					c-0.2,0.1-0.7,0.1-1.2,0.1v-8c-5,1-13.1-0.5-19.5-2c-0.2-0.2-0.3-0.4-0.5-0.6c1.1,0.2,2.3,0.5,3.4,0.7c2.5,0.4,5,0.8,7.4,1.1
					c1.9,0.3,3.8,0.5,5.7,0.4c1.3,0.1,2.5-0.1,3.8-0.3l0,0l0,0c0.5-0.1,0.9-0.2,1.4-0.5c0.9-0.3,2.9-1.2,3.6-2.3
					c0.3-0.5,0.3-1-0.1-1.6c-0.1-0.1-0.2-0.2-0.2-0.2c-0.2-0.1-0.5-0.2-0.8-0.1c-0.3,0.1-0.7,0.2-1,0.3c-0.8,0.3-2.2,0.7-3.1,0.8
					l0.1-0.8l0,0l0.8-5.6c0.2-1.2,0.1-2.3-0.3-3.4c-1.2-3.6-3.9-6.2-7.8-6.2C26.9,6.2,27.3,6.2,20.7,4.3L20.7,4.3z"/>
			</defs>
			<clipPath id="SVGID_8_">
				<use xlink:href="#SVGID_7_"  style="overflow:visible;"/>
			</clipPath>
			
				<linearGradient id="SVGID_9_" gradientUnits="userSpaceOnUse" x1="28.5442" y1="36.1029" x2="19.9493" y2="7.6391" gradientTransform="matrix(1 0 0 -1 0 52)">
				<stop  offset="9.566326e-02" style="stop-color:#660066"/>
				<stop  offset="0.2048" style="stop-color:#6F0066"/>
				<stop  offset="0.3855" style="stop-color:#890066"/>
				<stop  offset="0.6155" style="stop-color:#B20067"/>
				<stop  offset="0.8833" style="stop-color:#EA0068"/>
				<stop  offset="0.9745" style="stop-color:#FF0068"/>
			</linearGradient>
			<rect x="0.6" y="3.5" class="st4" width="48.2" height="50.3"/>
		</g>
	</g>
	
		<linearGradient id="SVGID_10_" gradientUnits="userSpaceOnUse" x1="26.8954" y1="50.9258" x2="26.1649" y2="40.0825" gradientTransform="matrix(1 0 0 -1 0 52)">
		<stop  offset="0.3813" style="stop-color:#FFFFFF;stop-opacity:0.3"/>
		<stop  offset="0.7854" style="stop-color:#FF559B;stop-opacity:0.1041"/>
		<stop  offset="1" style="stop-color:#FF0068;stop-opacity:0"/>
	</linearGradient>
	<path class="st5" d="M13.5,11c2.5,2.1,5.9,3,9,3.9c4.5,1.5,9.1,3,13.8,3.4c1.2,0.1,2.5,0.2,3.8,0.2l0.3-1.8
		c0.2-1.1,0.1-2.2-0.2-3.2c-1.2-3.4-3.8-5.9-7.3-6c-6.2-0.2-5.8-0.3-12-2.1l0,0c-3.8-1.3-7.2,0.6-8.9,3.8
		C12.3,9.8,12.8,10.4,13.5,11z"/>
	
		<linearGradient id="SVGID_11_" gradientUnits="userSpaceOnUse" x1="29.1699" y1="1.7249" x2="23.2875" y2="14.8633" gradientTransform="matrix(1 0 0 -1 0 52)">
		<stop  offset="9.566326e-02" style="stop-color:#FFFFFF;stop-opacity:0.3"/>
		<stop  offset="0.6863" style="stop-color:#FF559B;stop-opacity:0.1041"/>
		<stop  offset="1" style="stop-color:#FF0068;stop-opacity:0"/>
	</linearGradient>
	<path class="st6" d="M34.6,41.5c-2.7,0.4-5.3,0.3-8,0.8c-2.7,0.4-5.2,1.5-7.9,1.6c-2.6,0.1-5.2-0.5-7.8-0.5
		c1.1,1.4,2.8,2.3,4.7,2.3h17.8c3.2,0,5.9-2.5,6-5.8C38,40.5,36.4,41.2,34.6,41.5z"/>
	<path class="st7" d="M41.2,35.4c-0.2,0.5-0.4,1.2-0.7,1.9c-0.6,0.8-1.4,1.7-2.6,2.4c-1.9,1.2-4.3,1.7-6.7,1.7
		c-2.3-0.1-5.5-0.9-7.1-2.4c-1.2,1.9-4,3.5-6.2,4.1c-2.3,0.6-4.7,0.8-6.9,0.1C9.9,43,9,42.4,8.3,41.9c0,0,0-0.1-0.1-0.1
		c-0.6-0.7-1-1.4-1.4-2c0.6,0.9,2,2.1,4.2,2.8c2.1,0.6,4.6,0.5,6.9-0.1s5-2.3,6.2-4.1c1.6,1.4,4.7,2.3,7.1,2.4
		c2.4,0.1,4.7-0.5,6.7-1.7C39.8,38,40.8,36.5,41.2,35.4z"/>
	<path class="st8" d="M11.6,22.4c-0.2-0.1-0.5-0.2-0.7-0.2c-1-0.3-2.1-0.8-3.1-1.4V21c0.8,0.5,2.1,1.1,3.5,1.6
		C11.4,22.5,11.5,22.4,11.6,22.4z"/>
	<path class="st8" d="M40.2,26.8v0.5c-4.9,1-12.8-0.6-19.1-2c-0.2-0.2-0.3-0.4-0.5-0.6c0.1,0,0.5,0.2,0.5,0.2
		C27.4,26.2,35.4,27.8,40.2,26.8z"/>
</g>
</svg>
