<?xml version="1.0" encoding="utf-8"?>
<!-- Generator: Adobe Illustrator 16.0.0, SVG Export Plug-In . SVG Version: 6.00 Build 0)  -->
<!DOCTYPE svg PUBLIC "-//W3C//DTD SVG 1.1//EN" "http://www.w3.org/Graphics/SVG/1.1/DTD/svg11.dtd">
<svg version="1.1" id="Capa_1" xmlns="http://www.w3.org/2000/svg" xmlns:xlink="http://www.w3.org/1999/xlink" x="0px" y="0px"
	 width="134.5px" height="190px" viewBox="0 0 134.5 190" enable-background="new 0 0 134.5 190" xml:space="preserve">
<g>
	<defs>
		<rect id="SVGID_1_" x="27.873" y="112.25" width="80" height="22"/>
	</defs>
	<clipPath id="SVGID_2_">
		<use xlink:href="#SVGID_1_"  overflow="visible"/>
	</clipPath>
	<g clip-path="url(#SVGID_2_)">
		<defs>
			<rect id="SVGID_3_" x="-694.127" y="-995.75" width="2880" height="2048"/>
		</defs>
		<clipPath id="SVGID_4_">
			<use xlink:href="#SVGID_3_"  overflow="visible"/>
		</clipPath>
		<rect x="27.873" y="112.25" clip-path="url(#SVGID_4_)" fill="#D7D7D7" width="80" height="22"/>
	</g>
</g>
<path fill="#4B4B4C" d="M104.833,34.188v97.507h-73.92V34.188c-0.176-2.785,2.111-5.049,4.928-5.223c0.176,0,0.176,0,0.352,0h63.361
	c2.815-0.174,5.104,2.089,5.279,4.875C104.833,34.014,104.833,34.014,104.833,34.188z M104.833,157.812
	c0.176,2.786-2.111,5.05-4.928,5.224c-0.176,0-0.176,0-0.352,0H36.192c-2.815,0.174-5.104-2.089-5.279-4.875
	c0-0.174,0-0.174,0-0.349v-19.152h73.92V157.812z M99.554,22H36.192c-6.863,0-12.319,5.398-12.319,12.188v123.624
	c0,6.791,5.456,12.188,12.319,12.188h63.361c6.863,0,12.319-5.397,12.319-12.188V34.188C111.873,27.398,106.417,22,99.554,22z
	 M55.394,154.32h24.64c1.937,0,3.521-1.566,3.521-3.48s-1.584-3.479-3.521-3.479h-24.64c-1.937,0-3.521,1.565-3.521,3.479
	S53.457,154.32,55.394,154.32z M109.833,134v-22.125h-84V134H109.833z M29.833,113.958h76v18h-76V113.958z"/>
<g>
	<g>
		<defs>
			<rect id="SVGID_5_" x="-546.167" y="-995.167" width="2880" height="2048"/>
		</defs>
		<clipPath id="SVGID_6_">
			<use xlink:href="#SVGID_5_"  overflow="visible"/>
		</clipPath>
	</g>
</g>
</svg>
