<?xml version="1.0" encoding="utf-8"?>
<!-- Generator: Adobe Illustrator 16.0.0, SVG Export Plug-In . SVG Version: 6.00 Build 0)  -->
<!DOCTYPE svg PUBLIC "-//W3C//DTD SVG 1.1//EN" "http://www.w3.org/Graphics/SVG/1.1/DTD/svg11.dtd">
<svg version="1.1" id="Capa_1" xmlns="http://www.w3.org/2000/svg" xmlns:xlink="http://www.w3.org/1999/xlink" x="0px" y="0px"
	 width="130px" height="190px" viewBox="0 0 130 190" enable-background="new 0 0 130 190" xml:space="preserve">
<g>
	<defs>
		<rect id="SVGID_1_" x="195.373" y="109.75" width="80" height="22"/>
	</defs>
	<clipPath id="SVGID_2_">
		<use xlink:href="#SVGID_1_"  overflow="visible"/>
	</clipPath>
	<g clip-path="url(#SVGID_2_)">
		<defs>
			<rect id="SVGID_3_" x="-526.627" y="-998.25" width="2880" height="2048"/>
		</defs>
		<clipPath id="SVGID_4_">
			<use xlink:href="#SVGID_3_"  overflow="visible"/>
		</clipPath>
	</g>
</g>
<g>
	<g>
		<defs>
			<rect id="SVGID_5_" x="-378.667" y="-997.667" width="2880" height="2048"/>
		</defs>
		<clipPath id="SVGID_6_">
			<use xlink:href="#SVGID_5_"  overflow="visible"/>
		</clipPath>
		<rect x="25.333" y="24.333" clip-path="url(#SVGID_6_)" fill="#D7D7D7" width="22" height="108"/>
	</g>
	<path fill="#4B4B4C" d="M25.875,22.813v110.375H48V22.813H25.875z M46,129.188H28v-104h18V129.188z"/>
	<path fill="#4B4B4C" d="M52.555,151.824c-1.936,0-3.52-1.566-3.52-3.482c0-1.915,1.584-3.481,3.52-3.481h24.64
		c1.936,0,3.52,1.566,3.52,3.481c0,1.916-1.584,3.482-3.52,3.482H52.555z M101.835,31.688v97.507h-73.92V31.688
		c-0.176-2.785,2.112-5.049,4.928-5.223c0.176,0,0.176,0,0.352,0h63.36c2.816-0.174,5.104,2.089,5.28,4.875
		C101.835,31.514,101.835,31.514,101.835,31.688z M101.835,155.312c0.176,2.786-2.112,5.05-4.928,5.224c-0.176,0-0.176,0-0.352,0
		h-63.36c-2.816,0.174-5.104-2.089-5.28-4.875c0-0.174,0-0.174,0-0.349v-19.152h73.92V155.312z M96.555,19.5h-63.36
		c-6.864,0-12.32,5.398-12.32,12.188v123.624c0,6.791,5.456,12.188,12.32,12.188h63.36c6.864,0,12.32-5.397,12.32-12.188V31.688
		C108.875,24.898,103.419,19.5,96.555,19.5z"/>
</g>
</svg>
